<?xml version="1.0" encoding="UTF-8"?><svg id="Calque_2" xmlns="http://www.w3.org/2000/svg" viewBox="0 0 159.94 135.18"><defs><style>.cls-1{fill:#d6991a;}.cls-1,.cls-2,.cls-3{stroke:#354753;stroke-miterlimit:10;}.cls-1,.cls-3{stroke-width:.75px;}.cls-2,.cls-4{fill:#354753;}.cls-5,.cls-3{fill:none;}.cls-5,.cls-4{stroke-width:0px;}</style></defs><g id="Calque_1-2"><path class="cls-4" d="M3.19,129.07s2.11,1.92,4.45,1.92c.94,0,1.95-.36,1.95-1.48,0-2.21-8.37-2.13-8.37-7.85,0-3.43,2.89-5.69,6.58-5.69,4,0,5.98,2.11,5.98,2.11l-1.92,3.72s-1.87-1.64-4.11-1.64c-.94,0-1.98.42-1.98,1.46,0,2.34,8.37,1.92,8.37,7.8,0,3.09-2.37,5.77-6.55,5.77s-6.79-2.65-6.79-2.65l2.39-3.46Z"/><path class="cls-4" d="M25.7,115.96c5.62,0,9.72,4.16,9.72,9.49s-4.11,9.72-9.72,9.72-9.72-4.26-9.72-9.72,4.11-9.49,9.72-9.49ZM25.7,131.02c2.78,0,5.02-2.39,5.02-5.56s-2.24-5.33-5.02-5.33-5.02,2.29-5.02,5.33,2.24,5.56,5.02,5.56Z"/><path class="cls-4" d="M38.52,116.27h4.55v14.69h7.59v3.9h-12.14v-18.59Z"/><path class="cls-4" d="M53.16,116.27h4.55v18.59h-4.55v-18.59Z"/><path class="cls-4" d="M62.07,116.27h6.6c5.85,0,9.59,3.41,9.59,9.26s-3.74,9.33-9.59,9.33h-6.6v-18.59ZM68.5,130.97c3.15,0,5.07-1.87,5.07-5.43s-2-5.36-5.07-5.36h-1.87v10.79h1.87Z"/><path class="cls-4" d="M90.67,130.97h-5.8l-1.12,3.9h-4.68l6.32-18.59h4.78l6.32,18.59h-4.68l-1.14-3.9ZM87.76,120.51s-.42,2.03-.75,3.2l-1.07,3.61h3.67l-1.04-3.61c-.34-1.17-.75-3.2-.75-3.2h-.05Z"/><path class="cls-4" d="M106.95,115.96c4.6,0,6.97,2.63,6.97,2.63l-2.11,3.43s-2.08-1.9-4.65-1.9c-3.56,0-5.25,2.63-5.25,5.3s1.82,5.59,5.25,5.59c2.81,0,4.94-2.29,4.94-2.29l2.34,3.33s-2.63,3.12-7.49,3.12c-5.82,0-9.75-4.13-9.75-9.65s4.16-9.57,9.75-9.57Z"/><path class="cls-4" d="M125.54,115.96c5.62,0,9.72,4.16,9.72,9.49s-4.11,9.72-9.72,9.72-9.72-4.26-9.72-9.72,4.11-9.49,9.72-9.49ZM125.54,131.02c2.78,0,5.02-2.39,5.02-5.56s-2.24-5.33-5.02-5.33-5.02,2.29-5.02,5.33,2.24,5.56,5.02,5.56Z"/><path class="cls-4" d="M139.32,116.27h4.94l2.7,7.85c.42,1.2.94,3.07.94,3.07h.05s.52-1.87.94-3.07l2.7-7.85h4.94l1.51,18.59h-4.55l-.57-8.37c-.1-1.4,0-3.12,0-3.12h-.05s-.62,1.95-1.04,3.12l-1.95,5.38h-3.9l-1.95-5.38c-.42-1.17-1.04-3.12-1.04-3.12h-.05s.1,1.72,0,3.12l-.57,8.37h-4.58l1.53-18.59Z"/><polygon class="cls-5" points="151.01 27.31 159.55 25.77 159.57 15.33 146.95 10.73 151.01 27.31"/><path class="cls-3" d="M154.14,40.3l-22.98,22.98s-.03.04-.03.06l-2.57,28.32s.02.09.07.11c.87.3,9,3.15,11.13,5.14.74.7,1.87,3.3,2.15,3.95.03.07-.02.15-.1.15h-14.01s-.07-.02-.09-.05l-17.24-26.74s-.04-.04-.06-.04l-36.91-9.99s-.07,0-.1.03l-29.61,28.96s-.04.12.01.16c.62.43,3.94,2.78,4.92,3.97.57.69,1.49,2.99,1.72,3.58.03.07-.02.14-.1.14l-15.01.24c-.05,0-.09-.03-.1-.08l-1.76-8.5s0-.03,0-.05l9.83-41.86c.02-.1-.1-.17-.17-.1l-20.09,18.65s-.03.02-.06.03l-11.41,1.77s-.04,0-.05,0l-10.26-3.85s-.06-.04-.07-.08l-.82-4.14c-.02-.08.06-.14.13-.12l13.77,4.03s.09,0,.11-.04l18.47-24.05s.02-.02.04-.03l22.58-10.75s.03-.01.05-.01h43.93"/><path class="cls-3" d="M146.95,10.75l12.54,4.51s.07.05.07.1v10.39c0,.05-.04.09-.09.1l-8.28,1.45"/><line class="cls-3" x1="97.73" y1="25.82" x2="121.41" y2=".42"/><path class="cls-1" d="M14.27,67.09l-2.67,3.96s-.08.06-.12.04l-10.21-3.83s-.06-.04-.07-.08l-.82-4.14c-.02-.08.06-.14.13-.12l13.7,4.01c.07.02.1.1.06.16Z"/><path class="cls-3" d="M154.09,40.23l-56.15-14.36c-.07-.02-.11.06-.07.11l33.25,37.32,22.99-22.99s.01-.08-.02-.09Z"/><path class="cls-3" d="M153.87,40.17l-55.79-14.27c-.16-.04-.21-.23-.1-.35"/><path class="cls-3" d="M144.9,5.79l2.05,4.92h0s7.17,29.32,7.17,29.32c.01.05-.05.09-.09.04L122.49,1.42c-.06-.08-.18-.19-.68-.83l23.02,5.14.07.06Z"/><path class="cls-3" d="M32.96,42.9l10.32,7.46c.05.04.06.12,0,.16l-20.24,18.79s-.03.02-.06.03l-11.2,1.74c-.09.01-.15-.09-.1-.16l2.66-3.95s0,0,0,0l18.47-24.05s.1-.05.14-.02Z"/><path class="cls-3" d="M98.77,26.98l32.26,36.22c.06.07.09.16.08.25l-2.57,28.3-.72,8.29c-.03.32-.44.42-.61.15l-16.73-25.96s-.03-.06-.04-.1l-12.3-46.81c-.1-.38.38-.64.64-.34Z"/><path class="cls-3" d="M54.94,32.92l-11.5,17.43s-.1.06-.15.03l-10.27-7.43c-.06-.05-.06-.15.02-.18l21.54-10.26c.26-.12.52.17.36.41Z"/><path class="cls-3" d="M55.95,32.41l27.85,21.36c.05.04.06.11,0,.16l-40.59,39.79-7.84,7.41c-.06.06-.16.03-.17-.05l-1.79-8.63s0-.03,0-.05l9.96-41.94s0-.02.01-.03l11.8-17.88c.17-.26.52-.31.76-.13Z"/><path class="cls-3" d="M110.36,73.89l-10.89-41.75s-.05-.08-.1-.08h-43.51c-.12,0-.17.15-.08.22l54.41,41.71c.08.06.19-.01.17-.11Z"/><path class="cls-3" d="M83.84,53.9l-10.27,10.14c-.06.06-.03.15.05.18l36.32,9.83c.11.03.18-.11.09-.18l-26.05-19.97s-.1-.03-.14,0Z"/><path class="cls-3" d="M50.34,101.01l-14.78.23c-.11,0-.17-.14-.09-.21l8.15-7.72s.09-.04.13-.01c.53.37,3.95,2.78,4.95,3.99.57.69,1.49,2.99,1.72,3.58.03.07-.02.14-.1.14Z"/><path class="cls-2" d="M127.85,101.01h13.95c.08,0,.13-.08.1-.15-.27-.65-1.41-3.25-2.15-3.95-2.09-1.97-9.99-4.75-11.08-5.13-.06-.02-.13.02-.14.09l-.79,9.02c0,.06.04.11.1.11Z"/><g id="Souris"><path class="cls-3" d="M76.38,15.64l-7.19,2.91-4.58,12.42,3.89.83h19.43s-.28-10.68-.28-10.68c-.07-.13-.18-.34-.32-.59-1.27-2.29-2.44-4.4-4.1-6.42-.94-1.14-1.41-1.71-2.13-2.24-1.7-1.24-5.62-1.35-5.62-1.35,0,0,.02,4.35,1.61,6.35,2.91,3.66,9.3,4.26,10.56,4.25"/><line class="cls-3" x1="76.49" y1="15.59" x2="76.38" y2="15.64"/><polyline class="cls-3" points="65.7 28 49.66 28 64.61 30.97"/><line class="cls-3" x1="87.12" y1="12.55" x2="88.78" y2="14.32"/><path class="cls-3" d="M87.95,30.14h1.91c1.83-6.49,3.65-12.98,5.48-19.46l1.04-3.71c-4.62,2.06-9.24,4.12-13.86,6.18l-.14.06c.12.64.23,1.68-.01,2.92-.32,1.59-1.1,2.7-1.46,3.19-.07.1-.14.19-.18.24"/><path class="cls-3" d="M95.24,10.52c-.18.05-.84.18-1.34,0-1.37-.5-.99-1.78-1.02-1.89"/></g><path class="cls-2" d="M96.38,6.96l-1.14,3.56s-1.17.29-1.81-.25c-.75-.64-.55-1.64-.55-1.64l3.5-1.67Z"/></g></svg>